<?xml version="1.0" encoding="UTF-8"?>
<svg id="Capa_1" xmlns="http://www.w3.org/2000/svg" version="1.1" viewBox="0 0 498.22 276.6">
  <!-- Generator: Adobe Illustrator 30.3.0, SVG Export Plug-In . SVG Version: 2.1.3 Build 182)  -->
  <path d="M191.15,11.68c-.79,0-1.36.64-1.36,1.36v86.11s0,.5.15.64l13.5,24.3c.71,1.29,2.64.79,2.64-.64V13.04c0-.79-.64-1.36-1.36-1.36h-13.57Z" fill="#1d3338"/>
  <path d="M237.86,26.33h38.42c.5,0,1-.29,1.21-.71l6.57-11.86c.5-.93-.14-2.07-1.22-2.07h-61.28c-.79,0-1.36.64-1.36,1.36v110.48c0,1.43,1.93,1.93,2.64.64l13.5-24.37s.14-.43.14-.64v-38.52c0-.79.65-1.36,1.36-1.36h20.14c.5,0,1-.29,1.21-.71l6.57-11.86c.5-.93-.14-2.07-1.21-2.07h-26.71c-.79,0-1.36-.64-1.36-1.36v-15.58c0-.79.65-1.36,1.36-1.36" fill="#1d3338"/>
  <path d="M222.29,158.18l7.71,13.94c.21.43.71.71,1.21.71h32.93c.5,0,1-.29,1.21-.71l6.57-11.86c.5-.93-.14-2.07-1.21-2.07h-29.85c-1.07,0-1.71-1.14-1.21-2.07L318.7,13.75c.5-.93-.14-2.07-1.21-2.07h-15.14c-.5,0-1,.28-1.22.71l-79.56,143.28c-.21.43-.21.93,0,1.36l.64,1.14h.07Z" fill="#1d3338"/>
  <path d="M248.86,264.01l102.34-184.3c.5-.93-.14-2.07-1.21-2.07h-15.14c-.5,0-1,.29-1.21.71l-84.77,152.72c-.5.93-1.93.93-2.43,0L152.23,61.42c-.5-.93.14-2.07,1.21-2.07h20.64c.79,0,1.36-.64,1.36-1.36v-11.86c0-.79-.64-1.36-1.36-1.36h-30.35c-.5,0-1-.29-1.22-.71l-8.64-15.51c-.5-.93.14-2.07,1.21-2.07h38.92c.79,0,1.36-.64,1.36-1.36v-11.86c0-.79-.64-1.36-1.36-1.36h-65.35c-1.07,0-1.71,1.14-1.21,2.07l138.91,250.26c.5.93,1.93.93,2.43,0l.07-.21Z" fill="#1d3338"/>
  <path d="M265.28,143.46h15.14c.5,0,1-.29,1.21-.71l43.92-79.11c.21-.43.71-.71,1.21-.71h15.43c43.28,0,53.35-51.24,16.78-51.24h-22.07c-.5,0-1,.29-1.21.71l-7.71,13.94-63.92,115.06c-.5.93.14,2.07,1.21,2.07M335.2,46.19l10.64-19.15c.21-.43.71-.71,1.21-.71h9.35c16.29,0,6.07,21.94-10.86,21.94h-9.14c-1.07,0-1.71-1.14-1.21-2.07" fill="#1d3338"/>
  <polygon points="21.03 114.08 24.68 112.3 29.17 112.3 40.53 143.45 34.67 143.45 25.1 117.16 22.18 117.16 21.03 114.01 21.03 114.08" fill="#1d3338"/>
  <path d="M50.39,143.88c-3.71,0-6.86-2.5-8.85-7.79-.43-1.14-.71-1.72-1.22-2.36v-.36h5.07c.5.5.79,1.14,1.07,1.86l.79,2.07c.43,1.22,1.07,1.86,2,1.86s1.5-.72,1-2l-3.14-8.5h-.36c-.14,1.21-1.07,2.36-2.93,2.36-2.79,0-5.43-2.5-7.21-7.5l-.64-1.72c-2.21-6.14.07-9.86,4.29-9.86s8,2.43,12.43,14.65l1.14,3.14c3.43,9.51,1.07,14.15-3.36,14.15h-.07ZM42.46,124.37c.57,1.5,1.28,2,2.14,2,.78,0,1.43-.64,1.07-1.71l-2.21-6c-.57-1.5-1.29-2-2.14-2s-1.43.71-.93,2l2.07,5.79v-.07Z" fill="#1d3338"/>
  <path d="M75.74,143.53h-13.78l-1.29-3.72,1.22-13.01c.21-2.65.14-5.65-.64-7.86l-.14-.43c-.43-1.36-1.22-2-2.07-2s-1.29.71-.86,1.86l.86,2.43c.28.71.28,1.28.28,1.93h-5.28c0-.79-.07-1.36-.36-2.14l-.14-.43c-1.72-4.72.36-8.15,4.71-8.15,4.07,0,7.14,2.72,8.5,6.36,1.36,3.72.93,8.29.28,13.15l-.93,7.15h7.93l1.79,4.86h-.07Z" fill="#1d3338"/>
  <path d="M75.45,111.94c3.71,0,6.86,2.5,8.86,7.79.43,1.14.71,1.71,1.21,2.36v.36h-5.07c-.5-.5-.79-1.14-1.07-1.86l-.79-2.07c-.43-1.22-1.07-1.86-2-1.86s-1.5.71-1,2l3.14,8.51h.36c.14-1.22,1.07-2.36,2.93-2.36,2.79,0,5.43,2.5,7.21,7.51l.64,1.71c2.22,6.15-.07,9.86-4.28,9.86s-8-2.43-12.43-14.65l-1.14-3.14c-3.43-9.5-1.07-14.15,3.36-14.15h.07ZM82.31,137.24c.57,1.5,1.36,2,2.14,2s1.43-.71.93-2l-2.07-5.79c-.57-1.5-1.29-2-2.14-2-.79,0-1.43.64-1.07,1.72l2.14,6,.07.07Z" fill="#1d3338"/>
  <path d="M414.41,143.53h-13.85l1.29-3.72,11.28-13.79c1.86-2.22,3.64-4.65,4.43-6.79l.29-.71c.43-1.21.07-2-.86-2s-1.57.57-2,1.86l-1.43,4c-.21.57-.5,1.14-.93,1.57h-5.07v-.36c.5-.64.78-1.29,1.07-2.07l.36-.93c2.21-5.93,5-8.51,9.35-8.51s6.29,3.72,4.57,8.51c-1.36,3.71-3.21,6.07-7.71,11l-6.64,7.22h7.71l-1.79,4.86-.07-.14Z" fill="#1d3338"/>
  <path d="M436.12,111.94c4.07,0,7.5,4.29,3.36,15.36l-1,2.71c-3.21,8.58-7.21,13.79-12.07,13.79-4.07,0-7.5-4.15-3.36-15.36l1-2.72c3.21-8.58,7.21-13.79,12.07-13.79M427.4,139.03c.93,0,1.57-.71,2.07-2l6.64-18.29c.5-1.29,0-2.07-1-2.07-.93,0-1.57.71-2.07,2l-6.64,18.29c-.5,1.29,0,2.07,1,2.07" fill="#1d3338"/>
  <path d="M450.61,143.53h-13.85l1.28-3.72,11.28-13.79c1.86-2.22,3.64-4.65,4.43-6.79l.29-.71c.43-1.21.07-2-.86-2s-1.57.57-2,1.86l-1.43,4c-.22.57-.5,1.14-.93,1.57h-5.07v-.36c.5-.64.79-1.29,1.07-2.07l.36-.93c2.21-5.93,5-8.51,9.35-8.51s6.29,3.72,4.57,8.51c-1.36,3.71-3.21,6.07-7.71,11l-6.64,7.22h7.71l-1.78,4.86-.07-.14Z" fill="#1d3338"/>
  <path d="M471.97,111.94c4.57,0,6.28,3.43,4.57,8.15-.5,1.28-.57,1.93-.57,2.72h-5.07c0-.64.14-1.29.36-2.07l.86-2.36c.36-1.07-.07-1.79-1-1.79s-1.71.64-2.14,1.79l-3.14,8.5h.36c.79-1.36,1.57-2.36,3.5-2.36,3.29,0,4.14,4.36,2.36,9.36l-.5,1.43c-1.86,5.07-4.78,8.5-9.43,8.5-5.28,0-6.71-5.36-3.57-14.08l1.71-4.72c3.43-9.43,6.43-13.15,11.57-13.15l.14.07ZM463.18,139.24c.86,0,1.64-.57,2.07-1.79l2.29-6.22c.43-1.21,0-2-1-2-.86,0-1.57.57-2,1.79l-2.29,6.14c-.43,1.22,0,2,1,2l-.07.07Z" fill="#1d3338"/>
</svg>